<?xml version="1.0" encoding="UTF-8" standalone="no" ?>
<!DOCTYPE svg PUBLIC "-//W3C//DTD SVG 1.1//EN" "http://www.w3.org/Graphics/SVG/1.1/DTD/svg11.dtd">
<svg xmlns="http://www.w3.org/2000/svg" xmlns:xlink="http://www.w3.org/1999/xlink" version="1.1" width="267.8515625" height="212.432" xml:space="preserve">
<desc>Created with Fabric.js 1.6.0-rc.1</desc>
<defs></defs>
  <g transform="translate(134.43 176.72)">
   <text font-family="ADAMCG PRO" font-size="40" font-weight="bold" style="stroke: none; stroke-width: 1; stroke-dasharray: none; stroke-linecap: butt; stroke-linejoin: miter; stroke-miterlimit: 10; fill: #000000; fill-rule: nonzero; opacity: 1;" ><tspan x="-123.93" y="8.98" style="stroke: none; stroke-width: 0; stroke-dasharray: none; stroke-linecap: butt; stroke-linejoin: miter; stroke-miterlimit: 4; fill: #000000; fill-rule: ; opacity: 1;">w</tspan><tspan x="-79.1" y="8.98" style="stroke: none; stroke-width: 0; stroke-dasharray: none; stroke-linecap: butt; stroke-linejoin: miter; stroke-miterlimit: 4; fill: #000000; fill-rule: ; opacity: 1;">a</tspan><tspan x="-51.31" y="8.98" style="stroke: none; stroke-width: 0; stroke-dasharray: none; stroke-linecap: butt; stroke-linejoin: miter; stroke-miterlimit: 4; fill: #000000; fill-rule: ; opacity: 1;">t</tspan><tspan x="-27.95" y="8.98" style="stroke: none; stroke-width: 0; stroke-dasharray: none; stroke-linecap: butt; stroke-linejoin: miter; stroke-miterlimit: 4; fill: #000000; fill-rule: ; opacity: 1;">e</tspan><tspan x="-4.69" y="8.98" style="stroke: none; stroke-width: 0; stroke-dasharray: none; stroke-linecap: butt; stroke-linejoin: miter; stroke-miterlimit: 4; fill: #000000; fill-rule: ; opacity: 1;">r</tspan><tspan x="20.94" y="8.98" style="stroke: none; stroke-width: 0; stroke-dasharray: none; stroke-linecap: butt; stroke-linejoin: miter; stroke-miterlimit: 4; fill: #000000; fill-rule: ; opacity: 1;">p</tspan><tspan x="43.36" y="8.98" style="stroke: none; stroke-width: 0; stroke-dasharray: none; stroke-linecap: butt; stroke-linejoin: miter; stroke-miterlimit: 4; fill: #000000; fill-rule: ; opacity: 1;">a</tspan><tspan x="71.15" y="8.98" style="stroke: none; stroke-width: 0; stroke-dasharray: none; stroke-linecap: butt; stroke-linejoin: miter; stroke-miterlimit: 4; fill: #000000; fill-rule: ; opacity: 1;">r</tspan><tspan x="96.78" y="8.98" style="stroke: none; stroke-width: 0; stroke-dasharray: none; stroke-linecap: butt; stroke-linejoin: miter; stroke-miterlimit: 4; fill: #000000; fill-rule: ; opacity: 1;">k</tspan></text>
 </g>
<g style="stroke: none; stroke-width: 1; stroke-dasharray: none; stroke-linecap: butt; stroke-linejoin: miter; stroke-miterlimit: 10; fill: none; fill-rule: nonzero; opacity: 1;" transform="translate(70 10) rotate(0.18) scale(0.2 0.2)" >
  <path d="M 88.153 65.519 c -16.615 8.264 -23.776 26.088 -20.585 43.929 c 1.851 10.343 7.038 17.011 16.558 21.196 c 8.783 3.861 20.817 7.567 30.383 4.924 c 8.994 -2.485 16.956 -9.352 19.238 -18.645 c 1.359 -5.537 2.654 -11.352 2.61 -17.059 c -0.023 -2.979 -0.79 -5.786 -1.435 -8.677 c -0.661 -2.96 -0.521 -6.461 -2.047 -9.145 c -1.137 -2 -2.61 -3.983 -3.873 -5.922 c -2.71 -4.159 -6.506 -7.523 -10.887 -9.841 c -8.302 -4.393 -18.699 -5.202 -27.503 -1.834 C 89.776 64.763 88.955 65.121 88.153 65.519 z" style="stroke: none; stroke-width: 1; stroke-dasharray: none; stroke-linecap: butt; stroke-linejoin: miter; stroke-miterlimit: 10; fill: #FFC94E; fill-rule: nonzero; opacity: 1;" transform=" matrix(1 0 0 1 0 0) " stroke-linecap="round" />
  <path d="M 150.283 369.118 c -1.987 0.061 -3.701 -0.652 -5.589 -1.275 c -2.733 -0.903 -5.451 -1.782 -7.903 -3.306 c -8.465 -5.258 -14.493 -16.203 -26.019 -13.674 c -10.962 2.405 -20.58 8.33 -32.136 9.314 c -10.945 0.931 -21.993 2.375 -32.905 0.87 c -6.453 -0.889 -12.134 -4.082 -18.718 -1.903 c -6.856 2.268 -13.198 9.441 -16.681 15.463 c -8.696 15.036 -7.363 35.967 -4.051 52.504 c 2.97 14.827 9.5 34.083 25.227 39.725 c 14.826 5.32 34.79 -4.098 50.487 -4.063 c 10.023 0.022 19.833 0.024 29.77 1.231 c 10.3 1.251 19.46 2.001 29.432 4.695 c 6.113 1.651 12.896 2.361 19.245 1.492 c 15.964 -2.185 31.694 -10.166 48.174 -8.451 c 12.681 1.32 23.299 5.116 35.949 2.837 c 12.717 -2.29 24.711 1.732 37.188 2.742 c 13.983 1.132 27.86 2.801 41.841 4.134 c 11.834 1.127 23.214 0.522 35.03 -0.006 c 17.023 -0.761 33.917 -2.874 50.991 -2.877 c 17.45 -0.002 34.019 1.972 51.221 3.767 c 10.909 1.139 23.157 3.683 33.901 1.401 c 14.677 -3.117 14.66 -21.883 14.365 -33.884 c -0.358 -14.558 -3.167 -29.755 -6.104 -44.078 c -2.274 -11.092 -9.086 -22.889 -22.189 -22.155 c -5.616 0.314 -10.862 2.459 -16.382 2.988 c -5.141 0.492 -10.596 2.885 -15.614 4.267 c -8.185 2.255 -18.108 3.985 -26.401 1.386 c -3.476 -1.09 -6.881 -2.604 -10.217 -4.075 c -3.095 -1.364 -6.525 -2.501 -9.171 -4.678 c -9.211 -7.573 9.334 -10.502 14.044 -13.113 c 5.872 -3.255 8.714 -9.992 14.478 -13.04 c 11.34 -5.998 24.154 -5.814 32.768 -16.702 c 4.366 -5.517 9.005 -16.188 6.367 -23.02 c -2.884 -7.471 -8.019 -10.454 -15.277 -7.224 c -5.729 2.55 -17.584 13.048 -17.484 0.606 c 0.057 -7.078 7.871 -14.445 12.161 -19.57 c 4.657 -5.561 10.357 -13.476 0.606 -15.809 c -5.151 -1.233 -10.798 1.622 -14.776 4.609 c -3.848 2.888 -31.939 31.296 -30.189 12.529 c 0.386 -4.144 5.563 -12.517 2.062 -16.557 c -3.407 -3.928 -12.343 0.328 -15.651 2.866 c -12.539 9.621 -18.966 27.533 -22.688 42.189 c -5.249 20.671 -18.099 36.047 -39.012 42.203 c -20.259 5.962 -33.707 -1.965 -47.279 -15.939 c -12.845 -13.228 -26.961 -22 -45.813 -20.322 c -27.129 2.415 -43.388 16.185 -62.6 34.221 c -3.374 3.168 -6.257 6.823 -9.486 10.133 c -1.686 1.728 -3.454 3.418 -5.406 4.847 c -1.63 1.193 -3.591 1.557 -5.505 2.083 c -1.162 0.319 -2.451 0.489 -3.649 0.59 C 150.555 369.107 150.418 369.114 150.283 369.118 z" style="stroke: none; stroke-width: 1; stroke-dasharray: none; stroke-linecap: butt; stroke-linejoin: miter; stroke-miterlimit: 10; fill: #00BCE9; fill-rule: nonzero; opacity: 1;" transform=" matrix(1 0 0 1 0 0) " stroke-linecap="round" />
  <path d="M 69.19 294.642 c -0.208 6.399 -3.767 13.502 2.291 17.97 c 7.921 5.844 23.646 4.232 32.67 3.35 c 21.84 -2.137 43.78 -9.172 64.964 -14.595 c 28.534 -7.306 56.4 -16.151 84.556 -24.711 c 17.293 -5.257 35.095 -9.352 52.633 -13.774 c 16.006 -4.036 31.659 -9.432 47.757 -13.185 c 23.482 -5.474 47.531 -9.403 70.331 -17.094 c 7.514 -2.535 14.675 -5.808 22.11 -8.563 c 4.22 -1.564 10.246 -2.72 13.591 -5.767 c 2.696 -2.456 3.956 -6.076 2.625 -9.996 c -1.728 -5.087 -4.413 -2.553 -7.428 -6.036 c -2.321 -2.683 -1.979 -8.997 -3.022 -12.388 c -1.335 -4.344 -3.371 -8.897 -6.671 -12.191 c -10.448 -10.433 -30.144 -12.72 -44.046 -14.027 c -17.044 -1.602 -31.635 -1.666 -46.117 -11.062 c -11.643 -7.554 -19.862 -18.296 -31.504 -25.791 c -13.774 -8.867 -26.336 -15.373 -43.312 -15.342 c -8.691 0.016 -27.158 -2.244 -34.164 3.336 c -9.247 7.365 -0.782 15.792 7.692 17.535 c 7.314 1.505 18.209 -2.047 24.35 3.436 c 4.254 3.797 2.811 9.34 1.146 13.813 c -2.771 7.448 -2.479 11.007 2.044 17.828 c 11.745 17.707 5.623 35.211 -8.734 50.612 c -11.316 12.139 -28.328 15.454 -43.973 18.353 c -23.718 4.395 -47.092 10.152 -70.971 13.652 c -18.141 2.66 -36.015 3.89 -54.179 5.487 c -9.333 0.821 -21.661 1.599 -28.179 9.417 C 69.034 272.843 69.187 284.465 69.19 294.642 z" style="stroke: none; stroke-width: 1; stroke-dasharray: none; stroke-linecap: butt; stroke-linejoin: miter; stroke-miterlimit: 10; fill: #CD95C3; fill-rule: nonzero; opacity: 1;" transform=" matrix(1 0 0 1 0 0) " stroke-linecap="round" />
  <path d="M 206.594 209.997 c -15.597 7.153 -35.462 18.544 -53.628 15.652 c -12.449 -1.982 -21.427 -11.598 -34.494 -5.635 c -8.868 4.046 -10.605 10.866 -8.431 20.124 c 1.946 8.285 4.32 13.667 12.87 13.326 c 21.376 -0.852 42.126 -5.985 63.193 -9.403 c 17.51 -2.841 35.679 -5.456 52.842 -9.699 c 15.153 -3.746 6.917 -19.78 -1.913 -26.973 C 225.188 197.743 211.176 206.97 206.594 209.997 z" style="stroke: none; stroke-width: 1; stroke-dasharray: none; stroke-linecap: butt; stroke-linejoin: miter; stroke-miterlimit: 10; fill: #8B576F; fill-rule: nonzero; opacity: 1;" transform=" matrix(1 0 0 1 0 0) " stroke-linecap="round" />
  <path d="M 262.251 135.207 c 0.656 10.553 -5.711 13.527 -12.321 20.133 c -4.31 4.308 -19.972 20.067 -14.508 26.391 c 7.051 8.162 25.34 -8.299 29.596 -13.522 c 2.806 -3.445 3.394 -7.734 6.959 -10.549 c 4.005 -3.162 7.884 -3.131 9.823 -8.51 C 286.268 136.77 272.246 130.139 262.251 135.207 z" style="stroke: none; stroke-width: 1; stroke-dasharray: none; stroke-linecap: butt; stroke-linejoin: miter; stroke-miterlimit: 10; fill: #8B576F; fill-rule: nonzero; opacity: 1;" transform=" matrix(1 0 0 1 0 0) " stroke-linecap="round" />
  <path d="M 243.119 129.41 c -7.051 3.634 -23.441 6.304 -25.799 16.228 c -2.677 11.261 20.737 5.933 26.041 1.772 C 248.573 143.322 251.905 133.259 243.119 129.41 z" style="stroke: none; stroke-width: 1; stroke-dasharray: none; stroke-linecap: butt; stroke-linejoin: miter; stroke-miterlimit: 10; fill: #8B576F; fill-rule: nonzero; opacity: 1;" transform=" matrix(1 0 0 1 0 0) " stroke-linecap="round" />
  <path d="M 425.744 185.647 c -2.45 2.461 -6.767 5.968 -4.522 10.32 c 1.909 3.701 6.508 3.439 9.471 1.564 c 2.273 -1.439 5.372 -5.429 4.935 -8.132 c -0.831 -5.136 -6.439 -3.897 -10.464 -3.172" style="stroke: none; stroke-width: 1; stroke-dasharray: none; stroke-linecap: butt; stroke-linejoin: miter; stroke-miterlimit: 10; fill: #F0D967; fill-rule: nonzero; opacity: 1;" transform=" matrix(1 0 0 1 0 0) " stroke-linecap="round" />
  <path d="M 375.883 175.791 c -7.342 -2.367 -14.831 -0.808 -22.239 -2.052 c -9.462 -1.59 -20.58 -5.318 -18.967 9.452 c 1.097 10.043 10.371 12.146 19.226 12.871 c 8.491 0.696 25.377 2.61 32.141 -4.257 C 395.527 182.18 381.151 175.01 375.883 175.791 z" style="stroke: none; stroke-width: 1; stroke-dasharray: none; stroke-linecap: butt; stroke-linejoin: miter; stroke-miterlimit: 10; fill: #F0D967; fill-rule: nonzero; opacity: 1;" transform=" matrix(1 0 0 1 0 0) " stroke-linecap="round" />
  <path d="M 296.877 132.58 c -0.181 0.07 -0.362 0.144 -0.544 0.225 c -6.252 2.779 -0.508 6.377 0.122 11.111 c 0.755 5.676 -2.857 10.54 -1.059 16.121 c 1.44 4.469 12.394 2.993 15.072 0.968 c 3.737 -2.826 4.876 -8.201 4.825 -12.618 C 315.202 140.422 306.269 128.985 296.877 132.58 z" style="stroke: none; stroke-width: 1; stroke-dasharray: none; stroke-linecap: butt; stroke-linejoin: miter; stroke-miterlimit: 10; fill: #F0D967; fill-rule: nonzero; opacity: 1;" transform=" matrix(1 0 0 1 0 0) " stroke-linecap="round" />
  <path d="M 92.381 317.833 c 4.707 14.544 14.282 27.437 28.135 34.512 c 8.954 4.574 20.7 10.661 30.434 12.465 c 6.127 1.135 8.644 -0.852 12.698 -5.773 c 8.404 -10.202 17.548 -18.596 28.451 -26.274 c 15.979 -11.25 35.651 -20.006 55.386 -16.105 c 17.388 3.438 31.117 15.836 43.609 27.26 c 5.67 5.187 11.027 11.043 18.7 13.191 c 8.414 2.355 16.675 -1.497 24.331 -5.043 c 21.311 -9.869 29.088 -24.33 35.803 -45.543 c 2.953 -9.33 4.632 -23.778 11.826 -30.784 c 5.44 -5.299 14.195 -7.232 21.502 -8.189 c 9.734 -1.274 8.476 5.852 6.097 13.737 c -4.665 15.453 9.266 8.678 16.389 1.049 c 3.77 -4.037 5.883 -8.976 10.2 -12.407 c 3.606 -2.867 8.084 -4.261 10.411 -8.615 c 4.929 -9.221 8.592 -25.027 7.711 -35.577 c -9.605 -0.882 -20.099 4.824 -29.243 7.29 c -15.778 4.255 -30.957 10.233 -46.795 14.215 c -17.524 4.405 -35.341 6.779 -52.873 11.005 c -21.63 5.214 -42.614 12.757 -64.264 17.854 c -39.906 9.395 -80.717 17.206 -119.836 29.438 c -10.292 3.218 -20.297 5.452 -30.715 7.765 C 105.563 314.37 97.711 315.661 92.381 317.833 z" style="stroke: none; stroke-width: 1; stroke-dasharray: none; stroke-linecap: butt; stroke-linejoin: miter; stroke-miterlimit: 10; fill: #D269A9; fill-rule: nonzero; opacity: 1;" transform=" matrix(1 0 0 1 0 0) " stroke-linecap="round" />
  <path d="M 67.451 301.599 c 9.188 -1.439 18.806 -4.914 28.056 -7.071 c 9.98 -2.327 19.666 -3.366 29.604 -4.964 c 11.482 -1.846 22.79 -6.554 34.203 -9.273 c 13.913 -3.314 27.775 -7.092 41.795 -10.015 c 48.256 -10.064 95.379 -26.227 143.262 -38.264 c 22.221 -5.587 43.985 -11.847 65.97 -18.183 c 10.662 -3.073 21.302 -6.258 32.091 -8.601 c 4.924 -1.069 16.789 -5.908 21.042 -1.044 c 15.182 17.36 -51.661 29.821 -55.661 30.872 c -26.995 7.095 -53.46 15.535 -80.657 22.029 c -31.589 7.542 -63.461 14.529 -94.501 24.238 c -24.52 7.669 -49.363 12.859 -74.188 19.117 c -19.935 5.025 -40.05 10.636 -60.22 14.498 c -9.362 1.793 -22.619 3.101 -28.483 -6.093 c -1.016 -1.593 -1.65 -3.675 -2.225 -5.347 C 67.963 302.733 68.571 302.579 67.451 301.599 z" style="stroke: none; stroke-width: 1; stroke-dasharray: none; stroke-linecap: butt; stroke-linejoin: miter; stroke-miterlimit: 10; fill: #8B576F; fill-rule: nonzero; opacity: 1;" transform=" matrix(1 0 0 1 0 0) " stroke-linecap="round" />
  <path d="M 380.315 285.284 c -0.819 1.436 -1.277 3.074 -1.892 4.6 c -1.064 2.638 -2.071 5.269 -2.942 7.976 c -1.285 3.998 -2.787 8.171 -3.063 12.394 c -0.19 2.924 0.361 5.247 2.721 7.123 c 1.359 1.08 2.983 1.105 4.658 0.862 c 4.181 -0.61 7.038 -3.302 10.635 -5.199 c 3.726 -1.965 7.728 -3.577 12.006 -3.557 c 2.935 0.014 5.718 0.627 7.473 3.134 c 3.788 5.41 -2.967 8.64 -6.954 10.522 c -2.147 1.013 -4.097 2.907 -5.727 4.588 c -2.102 2.167 -3.554 5.044 -3.328 8.156 c 0.215 2.952 2.98 3.371 5.444 3.048 c 3.766 -0.494 7.637 -1.819 11.184 -3.131 c 2.732 -1.009 6.076 -2.459 9.006 -1.41 c 1.745 0.625 3.676 2.287 4.357 4.025 c 0.639 1.628 0.479 3.351 0.007 5.005 c -0.724 2.535 -1.72 4.938 -2.183 7.555 c -0.31 1.749 -0.94 6.288 2.258 5.374 c 1.949 -0.558 3.901 -2.517 5.473 -3.726 c 3.023 -2.324 5.801 -4.907 8.902 -7.13 c 5.981 -4.288 12.63 -7.173 19.027 -10.717 c 5.173 -2.867 9.748 -6.939 12.552 -12.205 c 2.377 -4.464 2.305 -10.971 0.436 -15.623 c -1.655 -4.116 -4.077 -8.033 -8.993 -7.91 c -2.81 0.071 -5.679 0.897 -8.19 2.125 c -2.924 1.43 -5.555 3.45 -8.621 4.587 c -1.651 0.612 -4.192 1.673 -5.898 0.624 c -2.387 -1.467 -1.183 -4.588 -0.296 -6.578 c 2.561 -5.751 6.113 -10.582 9.636 -15.761 c 3.06 -4.498 6.977 -8.732 9.077 -13.805 c 1.368 -3.305 0.012 -6.351 -3.889 -6.259 c -5.236 0.123 -9.906 2.834 -14.152 5.624 c -4.763 3.128 -9.217 6.895 -13.455 10.692 c -3.506 3.142 -6.928 6.433 -10.612 9.367 c -1.913 1.524 -4.639 3.799 -7.278 3.242 c -2.358 -0.497 -2.907 -2.208 -2.648 -4.455 c 0.531 -4.628 3.196 -8.521 4.344 -13.018 c 0.591 -2.314 0.99 -5.363 -0.511 -7.409 c -1.532 -2.088 -4.127 -2.427 -6.526 -2.121 c -4.313 0.551 -8.344 3.938 -11.391 6.812 C 387.137 276.311 383.602 279.85 380.315 285.284 z" style="stroke: none; stroke-width: 1; stroke-dasharray: none; stroke-linecap: butt; stroke-linejoin: miter; stroke-miterlimit: 10; fill: #EFF9FE; fill-rule: nonzero; opacity: 1;" transform=" matrix(1 0 0 1 0 0) " stroke-linecap="round" />
  <path d="M 59.885 380.338 c -2.836 -1.793 -6.026 -3.225 -9.385 -3.626 c -0.67 -0.08 -1.293 -0.082 -1.896 -0.051 c -7.735 -1.139 -15.235 1.328 -21.916 6.854 c -2.537 2.098 -6.061 5.685 -4.505 9.33 c 1.539 3.604 6.295 4.237 9.663 4.669 c 3.397 0.437 6.112 0.784 8.701 3.251 c 1.785 1.701 3.073 3.861 4.818 5.599 c 3.492 3.48 8.204 4.277 13.005 3.93 c 9.164 -0.664 20.349 -6.148 14.988 -16.782 C 70.568 387.977 65.053 383.605 59.885 380.338 z" style="stroke: none; stroke-width: 1; stroke-dasharray: none; stroke-linecap: butt; stroke-linejoin: miter; stroke-miterlimit: 10; fill: #EFF9FE; fill-rule: nonzero; opacity: 1;" transform=" matrix(1 0 0 1 0 0) " stroke-linecap="round" />
  <path d="M 232.381 350.086 c 8.823 0.582 29.52 -1.948 22.744 -15.454 c -1.271 -2.532 -1.408 -3.273 -3.67 -4.729 c -3.051 -1.963 -6.21 -3.125 -9.837 -3.625 c -4.006 -0.552 -7.115 -0.478 -11.063 0.314 c -1.622 0.325 -3.251 0.471 -4.736 1.297 c -0.518 0.289 -0.973 0.652 -1.416 1.026 c -5.126 1.846 -9.989 5.413 -13.708 8.729 c -3.846 3.431 -9.717 7.431 -10.197 13.142 c -0.347 4.135 2.828 5.583 6.563 5.03 c 4.156 -0.616 7.785 -3.308 11.812 -4.456 C 223.529 350.037 227.564 349.768 232.381 350.086 z" style="stroke: none; stroke-width: 1; stroke-dasharray: none; stroke-linecap: butt; stroke-linejoin: miter; stroke-miterlimit: 10; fill: #EFF9FE; fill-rule: nonzero; opacity: 1;" transform=" matrix(1 0 0 1 0 0) " stroke-linecap="round" />
  <path d="M 282.472 383.421 c -3.952 -0.864 -7.819 -2.187 -11.842 -2.699 c -3.298 -0.42 -7.02 -0.71 -10.293 0.026 c -9.931 1.062 -20.185 7.623 -27.626 13.126 c -1.847 1.366 -5.649 4.847 -3.278 7.387 c 0.882 0.946 2.24 0.835 3.417 0.904 c 3.242 0.191 6.367 0.732 9.58 1.201 c 7.771 1.136 15.6 1.204 23.361 2.43 c 6.661 1.054 12.637 1.583 19.275 0.267 c 3.765 -0.747 10.091 -1.946 11.021 -6.564 c 0.858 -4.26 -2.361 -9.109 -5.09 -12.044 C 288.568 384.841 285.882 384.167 282.472 383.421 z" style="stroke: none; stroke-width: 1; stroke-dasharray: none; stroke-linecap: butt; stroke-linejoin: miter; stroke-miterlimit: 10; fill: #EFF9FE; fill-rule: nonzero; opacity: 1;" transform=" matrix(1 0 0 1 0 0) " stroke-linecap="round" />
  <path d="M 320.502 392.951 c -4.177 -0.515 -7.026 -0.741 -10.705 1.163 c -4.623 1.706 -9.617 5.01 -8.921 9.172 c 1.045 6.245 12.159 6.83 16.732 6.161 c 4.752 -0.695 13.588 -6.658 10.673 -12.296 C 326.515 393.736 323.974 393.379 320.502 392.951 z" style="stroke: none; stroke-width: 1; stroke-dasharray: none; stroke-linecap: butt; stroke-linejoin: miter; stroke-miterlimit: 10; fill: #EFF9FE; fill-rule: nonzero; opacity: 1;" transform=" matrix(1 0 0 1 0 0) " stroke-linecap="round" />
  <path d="M 368.905 358.338 c 8.146 -2.167 19.565 -9.795 16.33 -19.827 c -2.164 -6.709 -9.503 -4.172 -14.411 -0.394 c -1.689 0.645 -3.208 1.292 -5.02 2.437 c -3.644 2.306 -7.424 4.95 -9.014 9.153 C 353.675 357.949 362.804 359.962 368.905 358.338 z" style="stroke: none; stroke-width: 1; stroke-dasharray: none; stroke-linecap: butt; stroke-linejoin: miter; stroke-miterlimit: 10; fill: #EFF9FE; fill-rule: nonzero; opacity: 1;" transform=" matrix(1 0 0 1 0 0) " stroke-linecap="round" />
  <path d="M 412.748 395.324 c -1.211 -2.201 -4.652 -4.218 -6.599 -5.664 c -2.542 -1.89 -5.454 -3.236 -8.497 -4.134 c -2.767 -0.816 -6.515 -1.949 -9.454 -1.816 c -0.34 0.015 -0.674 0.055 -1.004 0.106 c -8.87 -1.34 -19.873 2.559 -26.023 7.71 c -3.288 2.754 -8.635 7.375 -8.164 12.097 c 0.385 3.862 3.762 6.192 7.292 7.106 c 4.589 1.189 9.827 -0.538 14.326 -1.468 c 4.842 -1.002 8.849 -2.753 13.907 -2.078 c 3.539 0.472 6.961 1.487 10.467 2.171 c 4.578 0.894 9.214 1.062 12.316 -3.103 C 413.183 403.748 414.349 398.235 412.748 395.324 z" style="stroke: none; stroke-width: 1; stroke-dasharray: none; stroke-linecap: butt; stroke-linejoin: miter; stroke-miterlimit: 10; fill: #EFF9FE; fill-rule: nonzero; opacity: 1;" transform=" matrix(1 0 0 1 0 0) " stroke-linecap="round" />
  <path d="M 96.604 396.848 c -3.018 0.046 -5.594 0.61 -8.398 3.01 c -2.973 2.543 -2.827 5.158 -1.663 8.738 c 2.782 8.555 12.486 9.986 20.368 10.653 c 7.7 0.652 13.402 -7.449 9.159 -14.168 C 112.174 398.91 103.874 396.331 96.604 396.848 z" style="stroke: none; stroke-width: 1; stroke-dasharray: none; stroke-linecap: butt; stroke-linejoin: miter; stroke-miterlimit: 10; fill: #EFF9FE; fill-rule: nonzero; opacity: 1;" transform=" matrix(1 0 0 1 0 0) " stroke-linecap="round" />
  <path d="M 69.906 79.084 c -1.011 2.352 -2.025 4.847 -2.841 7.302 c -0.089 0.202 -0.186 0.405 -0.271 0.605 c -4.049 9.462 -3.94 22.911 1.396 31.872 c 5.619 9.435 14.757 15.408 25.387 17.636 c 10.148 2.128 23.61 3.83 32.883 -1.984 c 3.472 -2.176 5.927 -7.217 7.373 -10.908 c 1.898 -4.848 4.414 -9.081 4.919 -14.362 c 1.044 -10.915 0.874 -22.28 -5.472 -31.623 c -5.435 -8 -12.453 -15.249 -22.535 -16.604 c -10.422 -1.401 -21.071 -1.095 -29.976 5.337 C 76.493 69.445 72.004 74.206 69.906 79.084 z M 88.163 70.784 c 4.675 -2.285 9.238 -3.513 14.523 -3.03 c 2.531 0.232 5.504 0.619 8.117 0.282 c 4.443 1.345 8.497 3.759 12.114 7.188 c 5.656 5.36 8.772 13.773 9.42 21.382 c 0.805 9.45 -1.275 17.965 -5.635 26.293 c -1.737 3.32 -3.355 6.12 -7.063 7.401 c -4.944 1.708 -11.676 1.582 -16.752 0.829 c -9.24 -1.368 -18.035 -2.739 -24.809 -9.783 c -7.864 -8.177 -8.41 -17.862 -6.606 -28.545 c 0.808 -4.787 3.622 -8.324 6.391 -12.105 C 80.725 76.79 83.717 72.958 88.163 70.784 z" style="stroke: none; stroke-width: 1; stroke-dasharray: none; stroke-linecap: butt; stroke-linejoin: miter; stroke-miterlimit: 10; fill: #241220; fill-rule: nonzero; opacity: 1;" transform=" matrix(1 0 0 1 0 0) " stroke-linecap="round" />
  <path d="M 91.501 48.975 c 0.295 1.938 1.292 4.207 3.09 5.189 c 0.653 0.357 1.54 0.433 2.187 0 c 2.276 -1.524 1.621 -3.736 1.833 -6.078 c 0.246 -2.713 -0.284 -5.49 -1.08 -8.074 c -1.518 -4.935 -9.457 -2.651 -7.683 2.118 C 90.711 44.447 91.132 46.55 91.501 48.975 z" style="stroke: none; stroke-width: 1; stroke-dasharray: none; stroke-linecap: butt; stroke-linejoin: miter; stroke-miterlimit: 10; fill: #241220; fill-rule: nonzero; opacity: 1;" transform=" matrix(1 0 0 1 0 0) " stroke-linecap="round" />
  <path d="M 113.559 146.644 c -1.056 -2.621 -4.318 -2.64 -5.373 0 c -0.936 2.342 -1.294 5.515 -1.133 8.046 c 0.097 1.535 0.445 2.9 0.436 4.461 c -0.031 5.204 8.146 5.212 8.087 0 c -0.006 -0.533 0.016 -1.073 -0.005 -1.606 c -0.056 -1.452 -0.532 -2.41 -0.865 -3.766 C 114.128 151.417 114.501 148.981 113.559 146.644 z" style="stroke: none; stroke-width: 1; stroke-dasharray: none; stroke-linecap: butt; stroke-linejoin: miter; stroke-miterlimit: 10; fill: #241220; fill-rule: nonzero; opacity: 1;" transform=" matrix(1 0 0 1 0 0) " stroke-linecap="round" />
  <path d="M 46.38 121.225 c 0.371 -0.008 0.735 -0.039 1.111 -0.082 c 1.01 -0.115 1.99 -0.356 2.956 -0.671 c 1.002 -0.328 1.875 -0.777 2.792 -1.273 c 0.994 -0.538 2.103 -0.765 3.037 -1.427 c 1.519 -1.077 2.371 -3.605 0.647 -5.025 c -1.565 -1.289 -3.51 -2.019 -5.563 -1.548 c -1.458 0.334 -2.721 1.009 -4.217 1.288 c -0.695 0.13 -2.183 0.073 -3.217 0.322 c -1.998 0.481 -3.15 1.86 -3.873 3.726 c -0.758 1.96 0.676 4.32 2.476 5.044 C 43.955 122.15 45.267 121.942 46.38 121.225 z" style="stroke: none; stroke-width: 1; stroke-dasharray: none; stroke-linecap: butt; stroke-linejoin: miter; stroke-miterlimit: 10; fill: #241220; fill-rule: nonzero; opacity: 1;" transform=" matrix(1 0 0 1 0 0) " stroke-linecap="round" />
  <path d="M 144.647 98.341 c 1.243 0.675 2.127 0.589 3.473 0.479 c 1.243 -0.102 2.498 0.155 3.789 -0.175 c 1.438 -0.368 2.823 -0.867 4.313 -1.041 c 1.513 -0.176 2.937 -0.01 4.42 -0.515 c 4.167 -1.416 3.828 -8.578 -1.104 -8.155 c -0.159 0.014 -0.319 0.028 -0.478 0.041 c -0.246 0.021 -0.493 0.065 -0.735 0.128 c -2.653 0.495 -5.183 0.768 -7.678 1.96 c -0.074 0.036 -0.761 0.393 -1.013 0.565 c -0.326 0.016 -1.045 0.112 -1.155 0.126 c -1.318 0.176 -2.004 1.093 -3.157 1.433 C 143.066 93.851 142.464 97.155 144.647 98.341 z" style="stroke: none; stroke-width: 1; stroke-dasharray: none; stroke-linecap: butt; stroke-linejoin: miter; stroke-miterlimit: 10; fill: #241220; fill-rule: nonzero; opacity: 1;" transform=" matrix(1 0 0 1 0 0) " stroke-linecap="round" />
  <path d="M 133.478 66.313 c 0.773 -0.777 1.642 -1.459 2.425 -2.227 c 0.379 -0.372 0.726 -0.77 1.068 -1.176 c 0.438 -0.522 0.186 -0.233 0.618 -0.589 c 2.218 -1.826 5.12 -4.014 4.021 -7.344 c -0.968 -2.934 -4.163 -3.545 -6.437 -1.699 c -0.617 0.5 -0.856 1.134 -1.27 1.758 c 0.347 -0.523 -0.46 0.406 -0.496 0.438 c -0.817 0.777 -1.584 1.533 -2.227 2.476 c -1.304 1.909 -2.701 3.861 -2.854 6.23 C 128.153 66.845 131.713 68.086 133.478 66.313 z" style="stroke: none; stroke-width: 1; stroke-dasharray: none; stroke-linecap: butt; stroke-linejoin: miter; stroke-miterlimit: 10; fill: #241220; fill-rule: nonzero; opacity: 1;" transform=" matrix(1 0 0 1 0 0) " stroke-linecap="round" />
  <path d="M 71.903 140.466 c -1.788 2.215 -4.138 4.502 -5.062 7.206 c -1.062 3.104 2.954 6.309 5.712 4.391 c 2.266 -1.575 3.498 -4.119 4.964 -6.404 c 1.141 -1.779 2.545 -3.509 3.31 -5.483 c 0.689 -1.778 -1.053 -3.552 -2.731 -3.585 C 75.433 136.535 73.464 138.532 71.903 140.466 z" style="stroke: none; stroke-width: 1; stroke-dasharray: none; stroke-linecap: butt; stroke-linejoin: miter; stroke-miterlimit: 10; fill: #241220; fill-rule: nonzero; opacity: 1;" transform=" matrix(1 0 0 1 0 0) " stroke-linecap="round" />
  <path d="M 51.264 70.389 c 2.171 1.001 4.375 1.925 6.522 2.98 c 2.087 1.026 4.057 1.974 6.367 1.097 c 1.55 -0.588 2.411 -2.222 1.536 -3.777 c -1.844 -3.281 -5.19 -5.461 -8.575 -7.113 c -0.554 -0.758 -1.375 -1.296 -2.319 -1.496 c -1.964 -0.414 -3.713 0.304 -4.819 1.961 l -0.271 0.406 C 48.493 66.267 49.22 69.446 51.264 70.389 z" style="stroke: none; stroke-width: 1; stroke-dasharray: none; stroke-linecap: butt; stroke-linejoin: miter; stroke-miterlimit: 10; fill: #241220; fill-rule: nonzero; opacity: 1;" transform=" matrix(1 0 0 1 0 0) " stroke-linecap="round" />
  <path d="M 143.406 135.534 c 1.67 0.954 3.709 0.628 5.09 -0.656 c 0.223 -0.206 0.493 -0.594 0.656 -0.85 c 0.91 -1.423 0.733 -3.97 -0.656 -5.09 c -1.064 -0.857 -2.107 -1.429 -3.385 -1.918 c -0.334 -0.128 -0.681 -0.221 -1.011 -0.354 c -0.261 -0.085 -0.267 -0.093 -0.017 -0.026 c -0.144 -0.081 -0.289 -0.16 -0.436 -0.235 c -0.965 -0.54 -1.161 -0.516 -1.979 -0.881 c -0.547 -0.245 -0.682 -0.317 -1.015 -0.47 c -0.254 -0.117 -1.379 -0.797 -0.755 -0.347 c -1.257 -0.906 -3.492 -0.014 -3.751 1.526 C 135.389 130.73 140.042 133.612 143.406 135.534 z" style="stroke: none; stroke-width: 1; stroke-dasharray: none; stroke-linecap: butt; stroke-linejoin: miter; stroke-miterlimit: 10; fill: #241220; fill-rule: nonzero; opacity: 1;" transform=" matrix(1 0 0 1 0 0) " stroke-linecap="round" />
  <path d="M 113.92 55.34 c 2.51 -3.24 3.162 -5.857 4.324 -9.819 c 1.209 -4.123 3.639 -7.877 4.595 -12.063 c 0.635 -2.783 -2.501 -4.391 -4.573 -2.662 c -1.628 1.358 -1.906 3.159 -2.652 5.062 c -0.973 2.485 -2.121 4.867 -2.881 7.437 c -0.739 2.496 -1.067 5.067 -1.504 7.62 c -0.274 1.597 -0.689 2.669 0.321 4.119 C 112.039 55.737 113.276 56.172 113.92 55.34 z" style="stroke: none; stroke-width: 1; stroke-dasharray: none; stroke-linecap: butt; stroke-linejoin: miter; stroke-miterlimit: 10; fill: #241220; fill-rule: nonzero; opacity: 1;" transform=" matrix(1 0 0 1 0 0) " stroke-linecap="round" />
  <path d="M 140.516 81.048 c 2.921 1.426 6.638 -0.83 9.447 -1.897 c 4.6 -1.747 9.477 -4.418 14.399 -5.04 c 4.115 -0.521 4.395 -6.838 0 -6.656 c -4.668 0.194 -9.325 2.485 -13.528 4.412 c -3.619 1.659 -7.714 3.464 -10.707 6.151 C 139.247 78.808 139.431 80.518 140.516 81.048 z" style="stroke: none; stroke-width: 1; stroke-dasharray: none; stroke-linecap: butt; stroke-linejoin: miter; stroke-miterlimit: 10; fill: #241220; fill-rule: nonzero; opacity: 1;" transform=" matrix(1 0 0 1 0 0) " stroke-linecap="round" />
  <path d="M 128.667 142.796 c -0.561 -0.712 -2.014 -0.708 -2.572 0 c -1.989 2.525 -0.34 6.52 0.198 9.41 c 0.877 4.707 3.039 8.756 4.184 13.315 c 1.148 4.575 7.927 2.619 7.014 -1.934 c -0.816 -4.078 -3.455 -7.744 -4.566 -11.806 C 131.974 148.301 130.857 145.576 128.667 142.796 z" style="stroke: none; stroke-width: 1; stroke-dasharray: none; stroke-linecap: butt; stroke-linejoin: miter; stroke-miterlimit: 10; fill: #241220; fill-rule: nonzero; opacity: 1;" transform=" matrix(1 0 0 1 0 0) " stroke-linecap="round" />
  <path d="M 92.662 144.452 c -3.604 2.146 -4.698 7.372 -6.496 10.962 c -0.865 1.727 -1.601 3.544 -2.554 5.221 c -0.877 1.543 -2.011 2.57 -2.495 4.318 c -1.191 4.302 5.489 6.139 6.679 1.841 c 0.119 -0.43 1.58 -2.217 2.058 -3.153 c 0.98 -1.92 1.798 -3.942 2.71 -5.899 c 1.696 -3.641 4.039 -7.945 3.225 -12.021 C 95.518 144.368 93.776 143.789 92.662 144.452 z" style="stroke: none; stroke-width: 1; stroke-dasharray: none; stroke-linecap: butt; stroke-linejoin: miter; stroke-miterlimit: 10; fill: #241220; fill-rule: nonzero; opacity: 1;" transform=" matrix(1 0 0 1 0 0) " stroke-linecap="round" />
  <path d="M 47.483 143.086 c 0.797 -0.936 3.079 -1.475 4.175 -2.256 c 1.81 -1.291 3.76 -2.358 5.572 -3.641 c 3.05 -2.161 6.045 -3.68 8.773 -6.28 c 0.708 -0.675 0.772 -2.044 0 -2.709 c -1.528 -1.315 -2.74 -1.339 -4.577 -0.704 c -2.535 0.875 -4.984 1.954 -7.196 3.45 c -2.227 1.506 -4.608 3.29 -6.957 4.558 c -2.106 1.136 -3.785 1.251 -5.195 3.411 C 39.969 142.145 44.928 146.085 47.483 143.086 z" style="stroke: none; stroke-width: 1; stroke-dasharray: none; stroke-linecap: butt; stroke-linejoin: miter; stroke-miterlimit: 10; fill: #241220; fill-rule: nonzero; opacity: 1;" transform=" matrix(1 0 0 1 0 0) " stroke-linecap="round" />
  <path d="M 41.269 92.311 c 2.625 0.22 4.965 0.93 7.471 1.721 c 1.796 0.567 4.182 1.892 6.118 1.613 c 0.463 -0.066 2.37 -1.06 1.204 -0.407 c 0.676 -0.379 1.044 -0.371 1.688 -0.977 c 0.968 -0.911 0.162 -2.401 -0.995 -2.457 c -1.738 -2.123 -3.837 -3.324 -6.536 -4.565 c -1.999 -0.918 -4.069 -1.643 -6.242 -2.015 c -1.751 -0.3 -3.742 -0.017 -5.21 -1.107 c -3.453 -2.564 -7.216 2.855 -4.455 5.773 C 36.239 91.927 38.618 92.089 41.269 92.311 z" style="stroke: none; stroke-width: 1; stroke-dasharray: none; stroke-linecap: butt; stroke-linejoin: miter; stroke-miterlimit: 10; fill: #241220; fill-rule: nonzero; opacity: 1;" transform=" matrix(1 0 0 1 0 0) " stroke-linecap="round" />
  <path d="M 71.261 54.094 c 1.183 3.076 3.988 8.551 8.133 6.305 c 0.612 -0.332 1.076 -1.279 0.8 -1.967 C 77.42 51.52 76.234 44 72.633 37.4 c -1.518 -2.782 -5.371 -1.834 -6.318 0.826 c -1.015 2.85 0.804 5.052 1.925 7.562 C 69.439 48.476 70.207 51.35 71.261 54.094 z" style="stroke: none; stroke-width: 1; stroke-dasharray: none; stroke-linecap: butt; stroke-linejoin: miter; stroke-miterlimit: 10; fill: #241220; fill-rule: nonzero; opacity: 1;" transform=" matrix(1 0 0 1 0 0) " stroke-linecap="round" />
  <path d="M 159.5 114.977 c -1.604 -0.475 -3.242 -1.134 -4.828 -1.678 c -1.456 -0.499 -3.778 -1.107 -5.109 -1.858 c -3.803 -2.139 -7.177 3.633 -3.418 5.846 c 2.862 1.686 6.469 2.432 9.58 3.657 c 1.433 0.565 2.76 0.893 4.252 1.25 c 2.072 0.496 3.92 1.54 5.974 2.1 c 4.392 1.199 6.246 -5.558 1.877 -6.811 c -1.119 -0.321 -2.115 -0.782 -3.211 -1.228 C 162.932 115.573 161.22 115.488 159.5 114.977 z" style="stroke: none; stroke-width: 1; stroke-dasharray: none; stroke-linecap: butt; stroke-linejoin: miter; stroke-miterlimit: 10; fill: #241220; fill-rule: nonzero; opacity: 1;" transform=" matrix(1 0 0 1 0 0) " stroke-linecap="round" />
  <path d="M 511.684 447.226 c -0.82 -8.329 -1.717 -16.593 -2.112 -24.967 c -0.209 -4.443 -1.086 -8.814 -1.322 -13.253 c -0.253 -4.802 -0.221 -9.365 -1.076 -14.128 c -1.289 -7.175 -4.289 -15.968 -9.921 -20.895 c -2.573 -2.252 -5.802 -4.902 -8.935 -6.261 c -3.606 -1.564 -7.787 -1.215 -11.58 -0.574 c -17.614 2.976 -33.51 16.303 -51.979 12.822 c -4.549 -0.857 -8.499 -2.498 -12.677 -4.428 c -2.51 -1.161 -4.683 -2.578 -7.07 -3.832 c 5.075 -1.369 10.182 -2.892 14.627 -5.584 c 3.519 -2.131 6.959 -4.49 10.233 -6.983 c 2.963 -2.256 4.534 -4.777 6.844 -7.557 c 2.881 -3.468 7.882 -4.049 11.966 -5.194 c 3.712 -1.04 7.615 -2.327 11.06 -4.083 c 6.571 -3.348 10.891 -9.275 13.565 -15.891 c 2.986 -7.386 4.69 -12.697 1.824 -20.52 c -2.033 -5.548 -6.361 -10.909 -12.828 -10.619 c -3.221 0.145 -6.316 1.608 -9.048 3.205 c -3.06 1.788 -7.457 5.894 -11.239 5.447 c -4.294 -0.508 0.118 -5.552 1.672 -7.262 c 2.84 -3.124 6.188 -5.639 8.822 -8.976 c 2.156 -2.732 4.01 -5.654 5.305 -8.894 c 1.141 -2.857 2.912 -6.476 2.823 -9.603 c -0.138 -4.92 -4.621 -7.521 -9.033 -8.075 c 0.964 -2.074 1.752 -4.246 2.631 -6.319 c 1.751 -4.13 3.29 -7.838 4.155 -12.3 c 0.773 -3.986 0.889 -7.545 0.25 -11.593 c -0.33 -2.094 0.172 -3.795 -0.197 -5.598 c 1.149 -0.445 2.291 -0.914 3.414 -1.441 c 6.024 -2.834 8.941 -10.828 7.065 -17.035 c -1.32 -4.368 -5.165 -7.004 -9.391 -7.91 c -1.287 -11.273 -5.672 -21.919 -15.133 -28.79 c -4.886 -3.549 -9.973 -5.511 -15.808 -6.977 c -7.06 -1.774 -14.938 -3.404 -22.191 -4.007 c -13.585 -1.131 -29.968 1.391 -42.101 -5.829 c -5.515 -3.281 -10.271 -7.154 -14.949 -11.531 c -2.39 -2.237 -4.518 -4.762 -6.97 -6.927 c -3.01 -2.656 -6.498 -4.875 -9.699 -7.3 c -4.927 -3.735 -9.981 -7.438 -15.596 -10.046 c -5.868 -2.725 -12.199 -3.88 -18.523 -5.114 c -6.757 -1.318 -13.697 -2.75 -20.587 -3.039 c -7.741 -0.325 -15.484 0.196 -23.214 -0.394 c -9.521 -0.726 -18.544 8.252 -16.586 17.879 c 0.191 0.939 0.488 1.781 0.842 2.568 c -1.449 0.392 -2.903 1.099 -4.309 1.691 c -4.54 1.911 -8.271 3.346 -12.105 6.519 c -3.172 2.624 -6.758 4.827 -7.509 9.202 c -0.561 3.273 1.183 6.076 4.344 7.22 c 8.395 3.041 19.503 1.185 26.216 -4.789 c 2.938 -2.614 6.355 -6.83 6.232 -10.975 c -0.012 -0.387 -0.036 -0.807 -0.074 -1.244 c 2.203 0.27 4.47 0.322 6.644 0.239 c 0.477 1.782 -0.227 4.952 -0.599 6.231 c -0.278 0.958 -0.75 2.834 -1.413 4.218 c -0.299 0.082 -0.591 0.175 -0.875 0.279 c -5.597 2.048 -8.389 7.26 -11.926 11.586 c -4.049 4.953 -8.539 9.129 -11.082 15.179 c -2.012 4.789 0.055 8.786 5.007 10.246 c 5.732 1.689 11.905 -0.823 17.17 -3.103 c 5.429 -2.352 9.989 -7.827 13.134 -12.71 c 1.873 -2.907 3.309 -6.305 3.575 -9.732 c 0.914 0.334 1.883 0.486 2.801 0.151 c 0.11 -0.041 0.24 -0.123 0.373 -0.216 c -0.022 0.456 -0.021 0.919 0.031 1.401 c 0.506 4.623 3.516 7.935 6.597 11.143 c 2.325 2.42 4.476 4.973 5.126 8.38 c 0.817 4.283 -1.035 9.005 -2.067 13.121 c -1.354 5.399 -3.4 11.479 -7.017 15.834 c -4.453 5.36 -10.833 9.099 -16.883 12.362 c -3.307 1.783 -6.732 3.399 -10.224 4.89 c -0.255 -5.362 -2.662 -11.345 -5.334 -15.392 c -3.446 -5.22 -8.391 -9.841 -14.87 -10.585 c -6.646 -0.764 -13.915 2.503 -19.957 4.909 c -6.557 2.611 -12.808 6.096 -19.281 8.94 c -6.981 3.068 -14.406 5.427 -21.775 7.365 c -7.681 2.021 -17 3.436 -24.414 0.197 c -2.908 -1.271 -6.123 -2.107 -8.802 -3.778 c -2.296 -1.432 -4.077 -2.88 -6.852 -3.207 c -6.413 -0.756 -12.972 1.859 -18.193 5.337 c -5.687 3.789 -8.613 10.561 -7.291 17.255 c 0.759 3.848 3.648 9.138 7.269 12.589 c -2.575 0.188 -5.152 0.341 -7.731 0.414 c -11.433 0.322 -24.793 4.235 -31.704 14.056 c -3.942 5.603 -4.476 12.86 -5.171 19.458 c -0.706 6.693 -0.256 13.43 -1.389 20.053 c -0.867 5.072 0.093 8.414 4.057 10.698 c 3.349 3.924 9.543 5.725 15.463 5.599 c 1.163 0.32 2.247 0.831 3.205 1.918 c 2.361 2.675 3.864 7.072 5.358 10.298 c 1.567 3.381 3.015 6.449 5.472 9.296 c 2.161 2.503 4.279 5.014 6.559 7.355 c -1.042 0.424 -2.045 0.981 -3.051 1.491 c -2.617 1.329 -5.391 2.524 -8.243 3.302 c -6.476 1.766 -12.919 2.443 -19.531 3.096 c -6.344 0.626 -12.591 0.261 -18.972 -0.199 c -3.268 -0.235 -6.417 -0.67 -9.619 -0.858 c -0.59 -0.226 -1.178 -0.457 -1.772 -0.669 c -7.143 -2.559 -14.069 -3.495 -20.936 0.32 C 8.686 363.574 2.697 378.865 1.03 393.878 c -0.307 2.764 -0.465 5.554 -0.51 8.353 c -0.118 0.468 -0.219 0.938 -0.288 1.411 c -0.605 4.165 0.101 7.892 0.674 11.952 c 0.507 3.593 0.944 6.968 1.82 10.516 c 0.26 1.051 0.593 2.094 0.948 3.134 c 0.793 3.264 1.722 6.484 2.767 9.643 c 0.657 2.813 1.826 5.446 3.057 8.091 c 1.776 3.815 2.83 7.834 5.184 11.374 c 4.436 6.675 10.112 10.221 17.931 11.543 c 3.635 0.615 7.408 1.204 11.085 1.477 c 4.396 0.329 8.657 -0.502 13.03 -0.659 c 9.617 -0.344 19.241 -0.233 28.843 -0.879 c 9.684 -0.653 19.459 0.438 29.162 0.98 c 4.565 0.255 9.003 1.22 13.549 1.567 c 4.764 0.363 9.48 0.542 14.21 1.289 c 9.427 1.49 18.407 2.398 27.916 1.049 c 9.422 -1.337 18.798 -3.025 28.263 -4.069 c 19.937 -2.198 39.824 -2.774 59.742 -0.146 c 9.862 1.3 19.714 2.321 29.503 4.164 c 9.034 1.701 17.676 3.94 26.922 4.37 c 18.921 0.88 38.021 -2.168 56.878 -3.37 c 19.812 -1.262 40.084 -1.287 59.837 0.65 c 9.532 0.936 18.966 2.651 28.473 3.691 c 8.419 0.922 17.097 2.867 25.554 1.343 c 7.682 -1.386 17.379 -2.545 21.909 -9.692 C 511.999 464.539 512.484 455.36 511.684 447.226 z M 399.481 364.579 c -1.404 0.311 -2.614 1.032 -3.935 1.374 c -1.968 0.509 -4.45 0.051 -6.476 0.173 c -8.186 0.494 -16.381 0.651 -24.486 2 c -5.056 0.842 -10.766 1.71 -15.549 4.066 c -7.138 2.588 -14.703 6.103 -22.371 5.749 c -8.591 -0.397 -16.894 -5.403 -24.806 -8.552 c -7.471 -2.973 -14.731 -6.25 -22.821 -7.262 c -8.618 -1.078 -18.365 0.493 -26.783 2.368 c -8.926 1.989 -18.293 4.993 -26.362 9.368 c -16.088 8.722 -32.117 17.581 -50.447 20.684 c -10.035 1.698 -20.064 1.4 -29.99 -0.784 c -4.137 -0.91 -8.376 -1.724 -12.417 -3.006 c -4.058 -1.287 -7.871 -3.216 -11.916 -4.591 c -0.022 -0.008 -0.044 -0.015 -0.066 -0.023 c 3.762 -0.334 7.56 -1.112 11.282 -1.702 c 6.645 -1.054 12.613 -3.489 18.845 -5.806 c 2.941 -1.093 5.073 -3.345 7.667 -5.014 c 3.218 -2.071 5.915 -4.442 8.729 -7.035 c 5.652 -5.206 9.844 -11.669 15.436 -16.973 c 11.716 -11.111 24.587 -20.513 39.969 -25.762 c 7.219 -2.463 13.726 -5.023 21.459 -4.049 c 8.085 1.018 15.921 2.907 22.872 7.297 c 7.116 4.496 12.908 10.432 18.484 16.661 c 2.416 2.699 4.781 5.538 7.469 7.974 c 2.614 2.369 5.759 3.806 8.735 5.636 c 12.181 7.495 29.298 4.286 40.769 -3.364 c 12.202 -8.136 23.675 -19.953 30.419 -33.106 c 5.123 1.927 17.385 -4.622 19.602 -5.821 c 2.857 -1.544 5.6 -3.626 8.933 -3.912 c 3.79 -0.327 7.576 2.093 3.757 5.837 c -4.182 4.1 -9.566 5.349 -12.187 10.944 c -1.396 2.981 -2.092 6.012 -0.858 8.817 c 0.471 1.389 1.358 2.573 2.684 3.357 c 3.244 2.384 7.459 1.462 11.199 0.026 c 2.347 -0.901 4.638 -1.919 7.008 -2.77 c 2.596 -0.932 5.331 -2.64 7.057 1.253 c 0.438 0.99 0.215 2.505 0.154 3.544 c -0.291 5.022 -2.663 9.858 -2.535 14.848 c -3.022 1.931 -6.217 3.477 -9.084 4.388 C 405.731 362.424 402.752 363.855 399.481 364.579 z M 452.133 273.687 c -1.517 4.036 -3.502 7.54 -6.454 10.741 c -2.617 2.836 -5.834 5.042 -8.366 7.96 c -3.281 3.782 -7.085 9.458 -4.449 14.546 c 2.543 4.911 9.146 5.539 13.831 3.86 c 5.005 -1.794 14.903 -12.027 19.637 -6.588 c 5.65 6.493 1.49 14.571 -1.571 20.968 c -3.371 7.045 -11.529 10.082 -18.625 11.98 c -7.831 2.094 -13.635 3.886 -18.294 10.839 c -0.691 1.032 -1.536 2.05 -2.473 3.044 c 0.371 -2.578 0.545 -5.169 0.626 -7.361 c 0.043 -1.162 0.055 -2.387 -0.028 -3.605 c -0.026 -1.252 -0.181 -2.313 -0.517 -3.199 c -0.547 -1.963 -1.571 -3.712 -3.45 -4.871 c -4.341 -2.681 -9.338 -0.012 -13.575 1.568 c -0.877 0.327 -1.717 0.654 -2.585 1.006 c -2.047 0.833 -6.664 2.197 -8.59 0.122 c -2.783 -3 4.293 -8.555 6.021 -9.733 c 0.394 -0.269 0.799 -0.54 1.206 -0.815 c 0.611 -0.289 1.207 -0.57 1.764 -0.849 c 3.286 -1.644 6.171 -4.296 6.082 -7.878 c 0.09 -0.359 0.166 -0.727 0.212 -1.112 c 0.487 -4.053 -2.622 -6.762 -6.264 -7.853 c -4.639 -1.389 -9.121 0.37 -13.117 2.636 c -4.588 2.603 -12.201 8.664 -17.868 6.871 c 1.863 -5.308 2.759 -10.947 4.047 -16.385 c 1.614 -6.812 3.222 -15.196 7.975 -20.557 c 2.051 -2.314 4.354 -4.584 6.724 -6.569 c 2.073 -1.737 11.696 -7.437 12.72 -1.444 c 0.416 2.434 -1.955 5.656 -2.926 7.767 c -1.423 3.092 -2.557 6.353 -2.234 9.814 c 0.489 5.251 4.419 8.096 9.719 7.43 c 6.157 -0.772 11.111 -6.118 14.88 -10.581 c 4.374 -5.181 8.957 -12.263 15.256 -14.993 c 2.874 -1.246 6.13 -2.893 9.367 -2.518 C 454.928 268.403 453.203 270.839 452.133 273.687 z M 241.385 145.521 c -4.391 3.523 -12.38 5.955 -17.864 3.928 c -5.549 -2.051 -3.083 -4.424 -0.253 -6.827 c 2.114 -1.796 4.085 -3.893 6.557 -5.194 c 2.317 -1.22 4.907 -1.945 7.286 -3.044 c 1.349 -0.623 2.906 -1.004 4.366 -1.511 c 1.195 1.125 2.619 2 4.207 2.652 c 0.064 0.286 0.123 0.576 0.157 0.871 C 246.262 140.128 244.284 143.196 241.385 145.521 z M 251.425 177.015 c -2.936 1.263 -8.054 3.997 -11.264 3.088 c -6.442 -1.826 -0.213 -7.915 2.042 -10.736 c 2.458 -3.075 4.643 -6.207 7.466 -8.971 c 1.818 -1.78 3.789 -4.312 6.019 -6.22 c 3.076 -1.343 6.808 -1.801 8.877 0.7 C 270.194 161.68 256.932 174.646 251.425 177.015 z M 276.807 152.113 c -2.096 2.406 -4.884 3.403 -7.086 -0.249 c -1.703 -2.826 -5.074 -4.287 -8.481 -4.558 c 0.449 -0.677 0.842 -1.4 1.185 -2.127 c 0.981 -2.076 1.976 -5.525 1.728 -8.402 c 0.187 -0.026 0.375 -0.05 0.557 -0.077 c 2.995 -0.429 8.444 -1.877 11.172 0.094 c 2.058 1.487 3.891 5.618 3.984 7.925 C 279.949 146.814 278.643 150.005 276.807 152.113 z M 111.138 231.405 c 1.836 -7.893 13.29 -14.583 20.662 -10.09 c 4.835 2.948 9.909 6.954 15.51 8.129 c 7.406 1.555 14.389 1.416 21.828 -0.157 c 14.344 -3.032 27.665 -9.119 40.757 -15.491 c 6.046 -2.943 16.752 -8.245 23.213 -4.527 c 7.426 4.274 8.044 12.717 9.827 20.146 c -5.618 2.05 -11.356 3.78 -17.079 5.213 c -13.388 3.356 -27.503 5.073 -41.174 6.798 c -14.253 1.798 -28.516 3.836 -42.775 5.343 c -7.916 0.837 -15.847 1.936 -23.797 2.749 C 116.063 243.361 109.474 238.559 111.138 231.405 z M 71.822 292.273 c 0.383 -2.405 0.624 -4.86 1.105 -7.251 c 0.669 -3.32 1.192 -7.029 2.08 -10.263 c 3.612 -13.155 19.561 -16.125 31.042 -16.723 c 6.649 -0.347 13.158 -0.881 19.831 -0.881 c 5.845 0 11.61 -1.252 17.406 -1.679 c 13.219 -0.974 26.414 -2.855 39.595 -4.41 c 13.468 -1.589 26.851 -3.426 40.124 -6.179 c 5.175 -1.074 10.524 -1.929 15.569 -3.531 c 5.396 -1.711 10.4 -4.522 15.748 -6.271 c 10.862 -3.552 22.283 -10.259 29.608 -19.16 c 3.385 -4.113 5.214 -9.352 6.711 -14.416 c 1.751 -5.925 3.809 -12.981 3.644 -19.163 c -0.122 -4.6 -2.036 -8.954 -4.931 -12.473 c -3.92 -4.766 -10.589 -8.133 -7.733 -15.139 c 1.644 -4.033 3.59 -6.693 3.033 -11.417 c -0.38 -3.227 -2.371 -7.579 -4.832 -9.74 c -3.375 -2.965 -8.165 -2.571 -12.278 -2.88 c -2.927 -0.219 -5.786 -0.922 -8.713 -1.104 c -3.011 -0.187 -5.206 -1.235 -8.011 -2.182 c -3.011 -1.018 -4.518 -1.953 -4.031 -5.298 c 0.341 -2.346 1.521 -4.044 3.345 -5.458 c 5.507 -4.266 15.476 -2.515 22.152 -2.508 c 7.455 0.007 14.346 0.873 21.538 2.93 c 5.996 1.715 12.417 3.35 18.048 6.038 c 13.099 6.254 23.364 17.373 33.537 27.383 c 4.665 4.591 9.657 8.511 15.164 12.038 c 5.974 3.825 13.593 4.506 20.52 5.308 c 7.823 0.906 15.666 0.706 23.515 0.892 c 7.085 0.167 14.62 1.75 21.646 2.879 c 7.459 1.199 14.159 3.592 18.904 9.913 c 3.78 5.036 5.158 12.163 5.45 18.506 c -0.326 0.299 -0.574 0.646 -0.775 1.015 c -4.209 1.067 -8.507 2.813 -9.886 3.163 c -13.315 3.39 -26.318 8.011 -39.662 11.283 c -13.795 3.382 -27.291 7.54 -40.944 11.383 c -13.227 3.723 -26.62 6.81 -39.86 10.544 c -14.239 4.015 -28.407 8.149 -42.893 11.32 c -13.346 2.921 -26.744 5.204 -40.011 8.523 c -13.396 3.35 -26.678 6.66 -39.934 10.545 c -7.063 2.069 -14.038 3.639 -21.011 6.098 c -6.53 2.304 -13.455 3.104 -20.064 5.101 c -6.571 1.985 -13.42 3.743 -20.195 4.827 c -7.899 1.264 -15.47 3.925 -23.352 5.271 c -7.282 1.244 -14.537 2.691 -21.783 4.054 c -6.391 1.202 -12.56 3.566 -19.008 4.513 C 71.383 295.876 71.531 294.098 71.822 292.273 z M 87.594 313.033 c -3.037 -0.562 -5.859 -0.09 -8.876 -0.938 c -2.056 -0.576 -6.25 -1.16 -7.67 -2.643 c -1.121 -1.171 -1.11 -3.054 -0.823 -4.949 c 5.787 -0.772 11.155 -2.818 16.813 -4.022 c 5.799 -1.235 11.593 -2.12 17.373 -3.523 c 12.965 -3.147 26.19 -5.358 39.19 -8.372 c 6.154 -1.426 12.112 -3.813 18.257 -5.234 c 6.477 -1.498 12.582 -2.667 18.853 -4.989 c 6.781 -2.512 13.962 -3.77 20.925 -5.7 c 6.585 -1.825 12.896 -4.223 19.621 -5.572 c 6.806 -1.365 13.588 -3.252 20.308 -5.025 c 6.452 -1.702 13.021 -2.799 19.499 -4.345 c 6.219 -1.483 12.668 -2.31 18.934 -3.721 c 7.3 -1.643 14.639 -3.41 21.883 -5.276 c 6.991 -1.8 13.96 -4.209 20.893 -6.25 c 6.465 -1.903 13.121 -3.164 19.653 -4.841 c 13.151 -3.374 25.957 -8.207 39.156 -11.469 c 14.747 -3.643 29.197 -8.067 43.809 -12.189 c 3.924 -1.106 7.913 -2.048 11.868 -3.088 c 2.567 -0.502 5.124 -1.054 7.731 -1.417 c 2.594 -0.362 5.127 -1.003 7.762 -1.034 c 1.599 -0.019 3.189 0.307 4.778 -0.061 c 0.123 -0.029 0.24 -0.064 0.361 -0.096 c 1.413 0.617 2.298 2.048 1.778 4.025 c -0.741 2.811 -4.28 3.592 -6.579 4.664 c -2.688 1.253 -5.52 1.826 -8.389 2.637 c -3.613 1.02 -6.889 2.576 -10.388 3.815 c -5.279 1.867 -10.762 3.249 -16.061 5.21 c -6.67 2.467 -13.075 5.385 -19.967 7.282 c -13.353 3.676 -27.022 6.212 -40.34 10.05 c -14.601 4.208 -29.321 7.932 -44.046 11.743 c -14.251 3.687 -28.49 7.333 -42.809 10.751 c -14.157 3.379 -28.829 6.597 -42.57 11.368 c -6.244 2.168 -12.713 3.162 -18.999 5.254 c -6.209 2.066 -12.439 3.484 -18.747 5.202 c -14.649 3.989 -29.577 6.835 -44.287 10.582 c -13.831 3.523 -27.872 6.033 -41.828 8.969 C 98.986 311.026 93.313 312.115 87.594 313.033 z M 97.39 320.607 c -0.291 -0.489 -0.59 -0.96 -0.901 -1.413 c 3.494 -0.408 6.986 -0.863 10.497 -1.452 c 6.93 -1.164 13.895 -2.467 20.841 -3.532 c 16.424 -2.516 32.667 -7.089 48.896 -10.704 c 8.048 -1.793 15.994 -4.202 24.068 -5.83 c 7.449 -1.502 14.367 -4.809 21.847 -6.193 c 8.091 -1.498 15.892 -4.781 23.931 -6.695 c 8.15 -1.941 16.188 -4.303 24.305 -6.357 c 17.048 -4.312 34.127 -8.534 51.183 -12.822 c 16.277 -4.092 32.492 -8.383 48.654 -12.845 c 15.22 -4.201 31.304 -6.579 45.849 -12.903 c 3.886 -1.689 7.846 -3.091 11.784 -4.656 c 3.358 -1.333 6.944 -1.72 10.244 -3.153 c 4.422 -1.921 9.034 -3.189 13.591 -4.6 c -0.181 0.53 -0.321 1.081 -0.401 1.667 c -0.529 3.877 -0.197 7.368 -1.293 11.202 c -1.964 6.874 -4.828 14.215 -8.869 20.198 c -0.479 0.71 -0.717 1.408 -0.772 2.07 c -9.137 3.748 -15.804 13.203 -22.268 20.309 c -2.607 2.866 -5.541 5.692 -9.543 5.638 c -0.032 -0.131 -0.073 -0.281 -0.129 -0.457 c 0.232 -0.868 -0.057 -2.168 0.195 -3.159 c 0.511 -2.005 1.568 -3.818 2.42 -5.687 c 2.205 -4.829 4.048 -10.911 -0.63 -14.934 c -5.394 -4.638 -13.431 -3.184 -18.999 0.203 c -5.498 3.343 -11.935 8.745 -15.003 14.485 c -3.563 6.665 -6.145 14.644 -7.841 21.985 c -0.837 3.622 -1.904 6.91 -2.979 10.458 c -1.253 4.139 -3.095 6.985 -5.458 10.567 c -9.668 14.658 -22.535 26.233 -39.984 30.261 c -17.662 4.077 -28.496 -15.242 -40.047 -24.631 c -6.259 -5.089 -13.066 -10.093 -20.815 -12.611 c -6.82 -2.216 -15.616 -4.598 -22.784 -3.721 c -15.106 1.846 -32.384 8.099 -44.519 17.386 c -6.569 5.027 -13.161 10.195 -19.039 16.027 c -5.819 5.773 -10.394 12.504 -16.555 17.976 c -0.678 0.603 -1.379 1.183 -2.092 1.745 c -0.304 -0.206 -0.649 -0.373 -1.059 -0.466 c -12.778 -2.877 -24.936 -7.744 -35.608 -15.535 c -4.403 -3.214 -7.633 -6.737 -11.118 -10.898 C 102.692 332.396 100.799 326.333 97.39 320.607 z M 72.247 364.516 c 6.862 -0.66 13.408 -1.117 20.233 -2.419 c 5.595 -1.067 12.087 -2.689 16.806 -6.046 c 0.542 -0.385 1.096 -0.909 1.483 -1.52 c 0.174 0.125 0.339 0.26 0.515 0.382 c 10.92 7.562 22.292 12.635 35.039 14.905 c -9.953 5.124 -21.634 7.503 -32.524 7.699 c -8.896 0.16 -17.487 0.495 -26.136 -1.947 c -8.362 -2.361 -16.31 -5.028 -23.645 -9.806 c -0.794 -0.517 -1.598 -1.026 -2.409 -1.526 C 65.174 364.611 68.741 364.852 72.247 364.516 z M 501.021 464.739 c -2.181 4.098 -5.994 4.929 -10.271 5.83 c -4.444 0.936 -8.71 1.971 -13.286 1.797 c -8.337 -0.317 -16.672 -2.305 -24.969 -3.162 c -9.167 -0.946 -18.319 -2.592 -27.546 -2.945 c -9.494 -0.364 -18.962 -0.619 -28.47 -0.574 c -18.323 0.088 -36.548 1.297 -54.812 2.582 c -9.226 0.648 -18.421 1.503 -27.681 0.958 c -9.016 -0.53 -17.459 -3.097 -26.305 -4.599 c -18.206 -3.089 -36.741 -5.903 -55.24 -5.914 c -18.1 -0.01 -36.084 2.023 -53.974 4.698 c -9.422 1.409 -18.267 2.745 -27.804 1.476 c -8.742 -1.163 -17.651 -1.716 -26.337 -3.06 c -17.417 -2.696 -35.797 -2.854 -53.306 -1.347 c -4.438 0.382 -8.894 0.092 -13.339 0.19 c -4.194 0.094 -8.315 0.91 -12.517 0.707 c -6.995 -0.339 -15.213 -0.8 -20.279 -6.076 c -2.844 -2.961 -3.835 -6.948 -5.502 -10.553 c -1.576 -3.408 -3.132 -6.304 -3.796 -10.008 c -0.611 -3.407 -2.521 -6.346 -3.426 -9.708 c -0.01 -0.037 -0.021 -0.073 -0.03 -0.11 c -1.053 -4.774 -1.907 -9.578 -2.099 -14.533 c -0.606 -15.731 1.141 -31.417 12.987 -42.863 c 2.371 -2.291 5.389 -4.904 8.699 -5.656 c 3.933 -0.895 9.245 0.794 12.821 2.214 c 6.784 2.692 12.798 6.296 19.257 9.612 c 13.601 6.984 28.563 12.154 43.903 12.318 c 0.124 0.001 0.249 0.006 0.373 0.008 c 0.443 0.277 0.88 0.545 1.3 0.786 c 3.349 1.919 6.787 2.96 10.375 4.36 c 7.222 2.818 13.848 5.931 21.413 7.953 c 17.558 4.695 35.1 4.313 52.552 -0.893 c 7.717 -2.302 16.117 -5.303 23.087 -9.362 c 7.113 -4.142 14.542 -8.081 22.279 -10.956 c 16.132 -5.996 34.405 -9.611 51.054 -3.785 c 14.165 4.957 27.364 14.985 42.984 12.342 c 8.148 -1.379 15.484 -5.255 23.509 -7.2 c 9.041 -2.191 18.468 -4.268 27.805 -3.962 c 4.338 0.143 9.224 0.255 13.434 1.314 c 3.646 0.917 6.3 3.432 9.731 4.803 c 7.366 2.944 14.187 6.143 22.283 6.739 c 17.316 1.274 32.285 -8.916 48.909 -11.056 c 7.402 -0.953 13.171 4.821 16.574 10.86 c 4.598 8.157 4.102 16.805 5.488 25.758 c 1.32 8.532 1.532 17.049 2.18 25.641 C 503.665 447.871 505.247 456.796 501.021 464.739 z" style="stroke: none; stroke-width: 1; stroke-dasharray: none; stroke-linecap: butt; stroke-linejoin: miter; stroke-miterlimit: 10; fill: #241220; fill-rule: nonzero; opacity: 1;" transform=" matrix(1 0 0 1 0 0) " stroke-linecap="round" />
  <path d="M 389.946 180.867 c -1.557 -2.118 -3.389 -4.515 -5.867 -5.561 c -2.924 -1.236 -6.222 -1.378 -9.365 -1.664 c -5.607 -1.219 -11.384 -2.143 -16.941 -3.177 c -2.899 -0.54 -5.911 -0.943 -8.859 -1.011 c -2.732 -0.064 -5.594 -0.602 -8.227 -0.554 c -4.064 0.072 -7.736 1.273 -8.202 5.582 c -0.553 5.114 -0.802 11.947 1.76 16.59 c 2.704 4.901 8.772 6.501 13.912 7.499 c 3.15 0.611 6.318 0.533 9.498 0.844 c 4.243 0.415 8.618 0.886 12.865 0.202 C 378.233 198.376 398.009 191.839 389.946 180.867 z M 338.057 189.364 c -1.221 -1.798 -1.68 -4.082 -1.766 -6.517 c -0.057 -1.619 -0.613 -5.905 0.131 -7.408 c 0.942 -1.9 3.685 -1.358 5.573 -1.277 c 4.81 0.206 9.672 0.45 14.535 0.807 c 1.342 0.291 2.685 0.511 4.039 0.707 c -3.816 1.934 -7.565 4.795 -10.716 6.576 C 346.976 183.877 340.419 186.003 338.057 189.364 z M 351.119 194.501 c -2.96 -0.313 -6.39 -1.075 -9.208 -2.187 c 0.587 -0.27 1.17 -0.574 1.781 -0.926 c 3.2 -1.845 6.605 -3.344 9.772 -5.236 c 4.312 -2.575 11.099 -5.42 14.539 -9.386 c 2.973 0.528 6.347 0.678 9.507 1.287 c -3.595 1.695 -6.977 4.369 -10.235 6.33 c -3.009 1.811 -7.631 4.046 -10.967 6.859 c -1.572 0.998 -3.057 2.116 -4.265 3.355 C 351.737 194.563 351.426 194.533 351.119 194.501 z M 373.143 194.234 c -4.473 1.076 -9.163 1.2 -13.826 0.957 c 3.59 -1.858 7.217 -5.082 9.713 -6.591 c 2.639 -1.596 5.22 -3.252 7.815 -4.915 c 1.884 -1.208 4.303 -1.986 5.712 -3.772 c 0.042 -0.052 0.06 -0.112 0.095 -0.167 c 1.193 0.635 2.28 1.446 3.188 2.537 C 391.727 189.349 378.265 193.003 373.143 194.234 z" style="stroke: none; stroke-width: 1; stroke-dasharray: none; stroke-linecap: butt; stroke-linejoin: miter; stroke-miterlimit: 10; fill: #241220; fill-rule: nonzero; opacity: 1;" transform=" matrix(1 0 0 1 0 0) " stroke-linecap="round" />
  <path d="M 152.844 322.051 c -6.907 0.794 -13.875 2.285 -20.657 3.826 c -3.766 0.856 -8.783 1.492 -12.092 3.792 c -0.653 0.13 -1.233 0.72 -1.084 1.593 c 0.57 3.345 4.778 2.596 7.797 1.796 c 3.744 -0.401 7.436 -1.71 11.199 -2.204 c 5.054 -0.663 10.424 -2.295 15.459 -2.573 c 1.245 -0.068 1.873 -1.033 1.87 -1.983 C 156.128 324.562 155.134 321.788 152.844 322.051 z" style="stroke: none; stroke-width: 1; stroke-dasharray: none; stroke-linecap: butt; stroke-linejoin: miter; stroke-miterlimit: 10; fill: #241220; fill-rule: nonzero; opacity: 1;" transform=" matrix(1 0 0 1 0 0) " stroke-linecap="round" />
  <path d="M 155.029 332.703 c -1.39 -1.078 -3.271 -1.247 -5.269 -1.029 c -4.857 -0.446 -11.031 2.013 -15.389 3.05 c -3.125 0.743 -9.646 1.274 -11.424 4.587 c -0.463 0.863 -0.01 1.696 0.829 2.038 c 3.357 1.366 8.829 -0.474 12.097 -1.173 c 5.246 -1.121 11.69 -1.343 16.449 -3.894 c 0.218 -0.117 0.399 -0.261 0.551 -0.421 c 0.761 -0.279 1.463 -0.684 2.157 -1.354 C 155.48 334.074 155.57 333.122 155.029 332.703 z" style="stroke: none; stroke-width: 1; stroke-dasharray: none; stroke-linecap: butt; stroke-linejoin: miter; stroke-miterlimit: 10; fill: #241220; fill-rule: nonzero; opacity: 1;" transform=" matrix(1 0 0 1 0 0) " stroke-linecap="round" />
  <path d="M 154.07 339.937 c -0.114 0.028 -0.228 0.051 -0.342 0.079 c -0.58 -0.276 -1.275 -0.383 -2.074 -0.205 c -6.279 1.386 -17.183 1.176 -22.502 5.974 c -0.129 0.065 -0.26 0.121 -0.387 0.188 c -0.346 0.181 -0.48 0.445 -0.487 0.717 c -0.136 0.159 -0.286 0.303 -0.41 0.471 c -0.466 0.63 0.007 1.723 0.758 1.863 c 3.693 0.688 7.311 -0.148 10.958 -0.827 c 4.504 -0.84 9.337 -1.026 13.73 -2.361 c 1.008 -0.306 1.636 -0.925 1.955 -1.653 C 157.99 343.502 156.822 339.258 154.07 339.937 z" style="stroke: none; stroke-width: 1; stroke-dasharray: none; stroke-linecap: butt; stroke-linejoin: miter; stroke-miterlimit: 10; fill: #241220; fill-rule: nonzero; opacity: 1;" transform=" matrix(1 0 0 1 0 0) " stroke-linecap="round" />
  <path d="M 418.708 196.208 c 0.139 0.355 0.306 0.707 0.502 1.057 c 3.096 5.512 14.695 2.835 17.182 -2.23 c 1.429 -2.909 1.389 -7.411 -0.744 -10.009 c -1.962 -2.391 -5.408 -2.69 -8.262 -2.161 C 421.644 183.931 416.423 190.372 418.708 196.208 z M 424.676 189.074 c 1.669 -1.333 5.436 -3.905 7.725 -2.603 c 2.273 1.293 1.804 5.532 0.693 7.431 c -1.725 2.948 -8.88 4.415 -10.758 1.113 C 420.98 192.632 422.882 190.51 424.676 189.074 z" style="stroke: none; stroke-width: 1; stroke-dasharray: none; stroke-linecap: butt; stroke-linejoin: miter; stroke-miterlimit: 10; fill: #241220; fill-rule: nonzero; opacity: 1;" transform=" matrix(1 0 0 1 0 0) " stroke-linecap="round" />
  <path d="M 295.157 162.489 c 3.381 2.545 8.581 2.258 12.55 1.805 c 4.443 -0.506 7.866 -2.601 9.267 -6.979 c 1.823 -5.697 1.982 -10.556 -0.439 -16.028 c -2.291 -5.18 -5.82 -7.423 -10.963 -9.468 c -2.663 -1.059 -7.205 -2.181 -10.602 -1.269 c -3.082 -0.17 -5.403 0.531 -5.182 3.038 c 0.188 2.13 2.478 4.773 3.6 6.488 c 2.883 4.407 1.649 7.901 0.269 12.681 C 292.577 156.489 291.559 159.78 295.157 162.489 z M 294.671 137.548 c -0.662 -0.989 -0.77 -1.897 0.661 -2.815 c 1.325 -0.85 4.792 -0.896 6.327 -0.59 c 3.618 0.72 7.56 2.593 9.814 5.61 c 3.309 4.429 3.729 9.846 2.168 15.018 c -1.775 5.885 -6.527 6.112 -11.878 5.944 c -2.704 -0.085 -4.912 -0.416 -5.521 -3.272 c -0.444 -2.083 0.564 -4.72 1.085 -6.794 c 0.957 -3.795 2.203 -6.11 0.109 -9.634 C 296.662 139.703 295.364 138.582 294.671 137.548 z" style="stroke: none; stroke-width: 1; stroke-dasharray: none; stroke-linecap: butt; stroke-linejoin: miter; stroke-miterlimit: 10; fill: #241220; fill-rule: nonzero; opacity: 1;" transform=" matrix(1 0 0 1 0 0) " stroke-linecap="round" />
</g>
  <g transform="translate(128.89 126.87) scale(1.14 1.38)">
   <text font-family="ADAMCG PRO" font-size="40" font-weight="bold" style="stroke: none; stroke-width: 1; stroke-dasharray: none; stroke-linecap: butt; stroke-linejoin: miter; stroke-miterlimit: 10; fill: #000000; fill-rule: nonzero; opacity: 1;" ><tspan x="-86.25" y="8.98" style="stroke: none; stroke-width: 0; stroke-dasharray: none; stroke-linecap: butt; stroke-linejoin: miter; stroke-miterlimit: 4; fill: #000000; fill-rule: ; opacity: 1;">S</tspan><tspan x="-65.14" y="8.98" style="stroke: none; stroke-width: 0; stroke-dasharray: none; stroke-linecap: butt; stroke-linejoin: miter; stroke-miterlimit: 4; fill: #000000; fill-rule: ; opacity: 1;">h</tspan><tspan x="-37.83" y="8.98" style="stroke: none; stroke-width: 0; stroke-dasharray: none; stroke-linecap: butt; stroke-linejoin: miter; stroke-miterlimit: 4; fill: #000000; fill-rule: ; opacity: 1;">i</tspan><tspan x="-27.05" y="8.98" style="stroke: none; stroke-width: 0; stroke-dasharray: none; stroke-linecap: butt; stroke-linejoin: miter; stroke-miterlimit: 4; fill: #000000; fill-rule: ; opacity: 1;">r</tspan><tspan x="-1.43" y="8.98" style="stroke: none; stroke-width: 0; stroke-dasharray: none; stroke-linecap: butt; stroke-linejoin: miter; stroke-miterlimit: 4; fill: #000000; fill-rule: ; opacity: 1;">p</tspan><tspan x="21" y="8.98" style="stroke: none; stroke-width: 0; stroke-dasharray: none; stroke-linecap: butt; stroke-linejoin: miter; stroke-miterlimit: 4; fill: #000000; fill-rule: ; opacity: 1;">u</tspan><tspan x="48.63" y="8.98" style="stroke: none; stroke-width: 0; stroke-dasharray: none; stroke-linecap: butt; stroke-linejoin: miter; stroke-miterlimit: 4; fill: #000000; fill-rule: ; opacity: 1;">r</tspan><tspan x="74.26" y="8.98" style="stroke: none; stroke-width: 0; stroke-dasharray: none; stroke-linecap: butt; stroke-linejoin: miter; stroke-miterlimit: 4; fill: #000000; fill-rule: ; opacity: 1;"> </tspan></text>
 </g>
</svg>